<svg width="44" height="44" viewBox="0 0 44 44" fill="none" xmlns="http://www.w3.org/2000/svg">
<path fill-rule="evenodd" clip-rule="evenodd" d="M16.5191 31.5161C16.8249 31.8259 17.2395 32 17.6717 32C18.1039 32 18.5185 31.8259 18.8243 31.5161L27.523 22.6907C27.8284 22.3805 28 21.9599 28 21.5214C28 21.0829 27.8284 20.6623 27.523 20.352L18.8243 11.5267C18.675 11.3641 18.4949 11.2337 18.2948 11.1433C18.0948 11.0528 17.8788 11.0042 17.6598 11.0003C17.4408 10.9963 17.2233 11.0372 17.0202 11.1204C16.8171 11.2037 16.6326 11.3275 16.4777 11.4847C16.3228 11.6418 16.2007 11.829 16.1187 12.035C16.0367 12.2411 15.9964 12.4618 16.0003 12.6839C16.0041 12.9061 16.0521 13.1252 16.1412 13.3282C16.2303 13.5312 16.3589 13.7139 16.5191 13.8654L24.0653 21.5214L16.5191 29.1773C16.2137 29.4876 16.0421 29.9082 16.0421 30.3467C16.0421 30.7852 16.2137 31.2058 16.5191 31.5161Z" fill="#1E1E1E"/>
</svg>
